<svg width="845" height="315" viewBox="0 0 845 315" fill="none" xmlns="http://www.w3.org/2000/svg">
<path d="M195.72 75V271H178.64L52.64 111.96V271H31.92V75H49L175.28 234.04V75H195.72ZM345.373 272.68C325.96 272.68 308.32 268.387 292.453 259.8C276.773 251.027 264.453 239.08 255.493 223.96C246.72 208.84 242.333 191.853 242.333 173C242.333 154.147 246.72 137.16 255.493 122.04C264.453 106.92 276.773 95.0667 292.453 86.48C308.32 77.7067 325.96 73.32 345.373 73.32C364.787 73.32 382.24 77.6133 397.733 86.2C413.413 94.7867 425.733 106.733 434.693 122.04C443.653 137.16 448.133 154.147 448.133 173C448.133 191.853 443.653 208.933 434.693 224.24C425.733 239.36 413.413 251.213 397.733 259.8C382.24 268.387 364.787 272.68 345.373 272.68ZM345.373 254.2C360.867 254.2 374.867 250.747 387.373 243.84C399.88 236.747 409.68 227.04 416.773 214.72C423.867 202.213 427.413 188.307 427.413 173C427.413 157.693 423.867 143.88 416.773 131.56C409.68 119.053 399.88 109.347 387.373 102.44C374.867 95.3467 360.867 91.8 345.373 91.8C329.88 91.8 315.787 95.3467 303.093 102.44C290.587 109.347 280.693 119.053 273.413 131.56C266.32 143.88 262.773 157.693 262.773 173C262.773 188.307 266.32 202.213 273.413 214.72C280.693 227.04 290.587 236.747 303.093 243.84C315.787 250.747 329.88 254.2 345.373 254.2ZM651.521 75L564.721 271H544.281L457.481 75H479.881L554.921 245.24L630.521 75H651.521ZM796.871 218.64H687.671L664.151 271H642.591L732.191 75H752.631L842.231 271H820.391L796.871 218.64ZM789.311 201.84L742.271 96.56L695.231 201.84H789.311Z" fill="black"/>
</svg>
